inDegrees=no
num_controls=7
num_derivatives=13
num_iterations=129
num_multipliers=7
num_parameters=0
num_slacks=7
num_states=26
objective=5.926656
objective_accelerations=0.792960
objective_balance=0.006775
objective_effort=0.531183
objective_height=4.525913
objective_ligament=0.069825
solver_duration=1083.454649
status=Solve_Succeeded
success=true
DataType=double
version=3
OpenSimVersion=4.4-2022-07-23-0e9fedc
endheader
time	/jointset/ground_pelvis/pelvis_tilt/value	/jointset/ground_pelvis/pelvis_tx/value	/jointset/ground_pelvis/pelvis_ty/value	/jointset/hip_r/hip_flexion_r/value	/jointset/hip_r/hip_adduction_r/value	/jointset/hip_r/hip_rotation_r/value	/jointset/back/lumbar_extension/value	/jointset/patellofemoral_r/patellar_flexion_r/value	/jointset/knee_r/knee_flexion_r/value	/jointset/knee_r/knee_adduction_r/value	/jointset/knee_r/knee_rotation_r/value	/jointset/ankle_r/ankle_angle_r/value	/jointset/subtalar_r/subtalar_angle_r/value	/jointset/ground_pelvis/pelvis_tilt/speed	/jointset/ground_pelvis/pelvis_tx/speed	/jointset/ground_pelvis/pelvis_ty/speed	/jointset/hip_r/hip_flexion_r/speed	/jointset/hip_r/hip_adduction_r/speed	/jointset/hip_r/hip_rotation_r/speed	/jointset/back/lumbar_extension/speed	/jointset/patellofemoral_r/patellar_flexion_r/speed	/jointset/knee_r/knee_flexion_r/speed	/jointset/knee_r/knee_adduction_r/speed	/jointset/knee_r/knee_rotation_r/speed	/jointset/ankle_r/ankle_angle_r/speed	/jointset/subtalar_r/subtalar_angle_r/speed	/forceset/tau_hip_flexion_r	/forceset/tau_hip_adduction_r	/forceset/tau_hip_rotation_r	/forceset/tau_knee_flexion_r	/forceset/tau_ankle_angle_r	/forceset/tau_subtalar_angle_r	/forceset/tau_lumbar_extension	lambda_cid13_p0	lambda_cid14_p0	lambda_cid14_p1	lambda_cid14_p2	lambda_cid14_p3	lambda_cid14_p4	lambda_cid14_p5	/jointset/ground_pelvis/pelvis_tilt/accel	/jointset/ground_pelvis/pelvis_tx/accel	/jointset/ground_pelvis/pelvis_ty/accel	/jointset/hip_r/hip_flexion_r/accel	/jointset/hip_r/hip_adduction_r/accel	/jointset/hip_r/hip_rotation_r/accel	/jointset/back/lumbar_extension/accel	/jointset/patellofemoral_r/patellar_flexion_r/accel	/jointset/knee_r/knee_flexion_r/accel	/jointset/knee_r/knee_adduction_r/accel	/jointset/knee_r/knee_rotation_r/accel	/jointset/ankle_r/ankle_angle_r/accel	/jointset/subtalar_r/subtalar_angle_r/accel	gamma_cid13_p0	gamma_cid14_p0	gamma_cid14_p1	gamma_cid14_p2	gamma_cid14_p3	gamma_cid14_p4	gamma_cid14_p5
0.5	-0.1657374797496862	0.002258471069477106	0.7743876658980445	1.022751048034699	-0.2205232982135981	-0.1204979130075923	-0.6638136867445896	1.061654726329988	1.061654726330047	-0.08484259241447638	0.1744731655903349	0.3037568986989901	0.1459648102504325	-0.4356010871004447	-0.2231256542005199	-0.6344122341444457	2.208898356695862	-0.0611294353025895	0.2564762934555975	-0.7293385846497699	2.21375549600763	2.213755496007626	-0.3877033721295435	0.003706220463226561	0.5356516730995675	0.1217400434750941	-0.218295885737047	0.000641990734295418	0.01815962741436076	-0.3171700538297209	0.03043236001902839	0.005265658283396596	0.2561661464815144	-3.923266965978816	-32.42194150710651	-3.380048914788053	0.9494715512022935	-8.351448144617772	-640.4359892303094	67.87258196308822	0.6117097659012966	0.8002729232667737	-0.4835435363811265	-1.586046862578797	-0.09561716645503822	-0.1981857595375177	2.1722827123903	-1.581864545480092	-1.581864545480082	0.6709538860245268	-0.1952938310323109	-0.781757723632996	-0.3644818609726039	-3.584532637356924e-08	2.218592695018219e-07	2.455022118557409e-06	1.050892161138176e-06	-3.557787150157412e-07	-2.095354390908208e-07	1.838670977521801e-06
0.51	-0.1700619057379862	6.739122272299192e-05	0.7680208756832514	1.044757370799464	-0.2211397981727231	-0.1179459153861264	-0.6709979603488034	1.083709701571681	1.083709701571631	-0.08868683439775933	0.1745033621957356	0.3090731848684625	0.1471627706492556	-0.4292071090613535	-0.21507456367217	-0.6387988952136446	2.192068900888346	-0.06216733504067066	0.2539174768318161	-0.7074356103894912	2.196945961801843	2.196945961801844	-0.381088240156494	0.002375979781907854	0.5275193609259825	0.117805945949554	-0.2256380784246532	0.001150664126352849	0.01837203786061382	-0.3234680471480104	0.02996167587925502	0.005570028592043363	0.2630075859906788	-3.178641508180432	-32.97918518663399	-3.482698976429423	1.122630058044281	-8.329763137157814	-646.8127567398751	68.46954333062442	0.6648258175839115	0.8098181957474837	-0.3942302518837283	-1.775954285337092	-0.1071278023686123	-0.2856805271872707	2.211383653160822	-1.774530766270992	-1.774530766270238	0.6656223961722563	-0.09516846875705377	-0.8419560464476407	-0.4142807999581813	-2.170095048509642e-08	2.360659675999257e-07	2.384146953907203e-06	1.117714573778109e-06	-3.599995494026365e-07	-1.923855718566646e-07	1.862312031825038e-06
0.52	-0.1743200751469805	-0.002042719503122504	0.7616146182858284	1.066586487137051	-0.2217665274142331	-0.1154196961134571	-0.6779607884363531	1.105587774889641	1.105587774889553	-0.09246315915271698	0.1745216005377959	0.3143055502997444	0.1483201086525005	-0.4223497712354002	-0.2069318300187965	-0.6423056706705126	2.173457071260874	-0.06317529177422766	0.2513206236724883	-0.6850494813166197	2.178375111270338	2.178375111270343	-0.3741199264543796	0.001314567817557489	0.5188675254633441	0.1136155643594905	-0.2329802711121666	0.001659337518786891	0.01858444830745607	-0.3297660404662561	0.02949099173956419	0.005874398901301373	0.2698490254999013	-2.513421205782912	-33.53183379940957	-3.576558016503805	1.285265889741793	-8.347236036953195	-653.1486244443757	69.0891760450975	0.7043817232734909	0.8186015482716051	-0.3075664139148847	-1.942521626570121	-0.08962856555000023	-0.2057930666462888	2.268913674908811	-1.934127810623821	-1.934127810623811	0.7415902318375307	-0.1415280876394449	-0.8856623814435032	-0.4157386738768518	-8.260575832619484e-09	2.49292979401198e-07	2.318132086830124e-06	1.179212389917092e-06	-3.635963546502259e-07	-1.780129492863633e-07	1.889947387467758e-06
0.53	-0.1785075038733292	-0.004071037779520102	0.7551776919201464	1.088220880740805	-0.2224031390911904	-0.1129196978936311	-0.6846974712846523	1.127271561386027	1.127271561385755	-0.09616833110100868	0.1745304959220953	0.3194489284767693	0.1494343602306645	-0.4150662535845743	-0.1987246101166352	-0.6449309108478916	2.153140033253914	-0.06414329794576369	0.2486671766747296	-0.6622279397101304	2.158104697394331	2.158104697394311	-0.3668685216203151	0.0005135819671479155	0.50973229234689	0.1091921934875704	-0.2400885583569645	0.002169536317554586	0.01871290681465872	-0.3361910066429483	0.02900356035468351	0.006078047474784228	0.2764291681214381	-1.927171760470089	-34.10102496105505	-3.720586693574828	1.459930562008716	-8.262265868633516	-659.4646245713169	69.61950865048831	0.7508314202879163	0.8227913859123008	-0.217733169541667	-2.118499017213442	-0.09956225179119167	-0.2969579778412827	2.297646698257783	-2.11512152790405	-2.11512152790783	0.7240854206907148	-0.04170530751085779	-0.9388762327181007	-0.4615201269464396	5.536206849426562e-09	2.623689931896899e-07	2.253504468107795e-06	1.239230548976525e-06	-3.666187612124387e-07	-1.659440357422515e-07	1.92369086147688e-06
